 <svg  version="1.0" xmlns="http://www.w3.org/2000/svg"  width="900.000000pt" height="900.000000pt" viewBox="0 0 900.000000 900.000000"  preserveAspectRatio="xMidYMid meet">  <g transform="translate(0.000000,900.000000) scale(0.100000,-0.100000)" fill="#5101a7" stroke="none"> <path d="M4401 8936 c-6 -8 -24 -16 -39 -19 -58 -12 -122 -33 -134 -45 -7 -7 -24 -12 -38 -12 -14 0 -35 -7 -46 -15 -10 -8 -30 -15 -44 -15 -14 0 -34 -7 -44 -15 -11 -8 -30 -15 -42 -15 -12 0 -27 -7 -34 -15 -7 -8 -29 -15 -50 -15 -21 0 -43 -7 -50 -15 -7 -8 -21 -15 -30 -15 -10 0 -31 -6 -47 -14 -34 -17 -86 -35 -133 -46 -19 -5 -36 -14 -38 -19 -2 -6 -18 -11 -36 -11 -18 0 -41 -7 -52 -15 -10 -8 -29 -15 -40 -15 -12 0 -27 -7 -34 -15 -7 -8 -27 -15 -45 -15 -18 0 -38 -7 -45 -15 -7 -8 -28 -15 -47 -15 -21 0 -36 -6 -39 -15 -4 -8 -18 -15 -33 -15 -15 0 -36 -7 -47 -15 -10 -8 -29 -15 -41 -15 -12 0 -25 -4 -28 -10 -3 -5 -29 -12 -56 -16 -28 -4 -53 -13 -56 -20 -3 -8 -17 -14 -32 -14 -14 -1 -37 -7 -51 -15 -14 -8 -35 -14 -46 -15 -12 0 -27 -7 -34 -15 -7 -8 -27 -15 -45 -15 -18 0 -38 -7 -45 -15 -7 -8 -27 -15 -45 -15 -18 0 -38 -7 -45 -15 -7 -8 -22 -15 -34 -15 -11 0 -30 -7 -40 -15 -11 -8 -32 -15 -47 -15 -14 0 -32 -7 -39 -15 -7 -8 -29 -15 -50 -15 -21 0 -43 -7 -50 -15 -7 -8 -22 -15 -34 -15 -12 0 -31 -7 -42 -15 -10 -8 -29 -15 -41 -15 -12 0 -28 -7 -37 -15 -8 -8 -30 -15 -49 -15 -19 0 -40 -7 -47 -15 -7 -8 -25 -15 -39 -15 -15 0 -36 -7 -47 -15 -10 -8 -26 -15 -35 -15 -9 0 -30 -7 -45 -15 -16 -8 -39 -15 -52 -15 -12 0 -25 -7 -28 -15 -4 -10 -20 -15 -44 -15 -22 0 -42 -5 -45 -10 -10 -16 -69 -38 -120 -46 -26 -3 -49 -13 -52 -20 -3 -9 -20 -14 -44 -14 -26 0 -42 -5 -45 -15 -4 -8 -18 -15 -34 -15 -16 0 -41 -6 -57 -14 -60 -30 -105 -46 -127 -46 -13 0 -29 -7 -36 -15 -7 -8 -24 -15 -37 -15 -14 0 -37 -6 -51 -14 -36 -18 -91 -37 -124 -43 -15 -3 -33 -11 -39 -19 -6 -8 -28 -14 -49 -14 -21 0 -43 -7 -50 -15 -7 -8 -23 -15 -35 -15 -12 0 -28 -7 -35 -15 -7 -8 -27 -15 -44 -15 -17 0 -40 -7 -50 -15 -11 -8 -33 -15 -48 -15 -16 0 -31 -7 -34 -15 -4 -9 -19 -15 -38 -15 -18 0 -41 -7 -52 -15 -10 -8 -29 -15 -40 -15 -12 0 -27 -7 -34 -15 -7 -8 -27 -15 -44 -15 -18 0 -37 -5 -43 -11 -14 -14 -110 -48 -136 -49 -10 0 -31 -7 -47 -15 -27 -14 -30 -21 -30 -61 0 -25 6 -57 13 -72 9 -17 14 -70 16 -142 1 -84 5 -118 16 -130 11 -12 15 -43 15 -121 0 -61 6 -129 15 -162 8 -32 15 -83 15 -113 0 -30 6 -69 14 -87 8 -19 14 -76 15 -139 1 -64 7 -124 16 -149 10 -26 15 -79 15 -143 0 -65 5 -110 13 -127 8 -14 17 -79 21 -148 4 -68 11 -132 16 -142 6 -10 10 -43 10 -74 0 -31 5 -65 11 -76 5 -11 12 -84 15 -162 4 -89 10 -149 18 -162 8 -12 16 -73 20 -147 3 -70 11 -139 16 -153 6 -15 10 -55 10 -91 0 -36 6 -79 13 -97 7 -18 14 -78 16 -136 1 -67 7 -114 16 -132 11 -20 15 -62 15 -144 0 -74 5 -124 12 -138 7 -12 16 -58 19 -102 22 -252 31 -335 44 -376 9 -29 15 -88 15 -156 0 -81 4 -114 15 -129 10 -13 15 -46 15 -104 1 -47 6 -110 11 -140 5 -30 13 -94 17 -142 5 -48 13 -93 19 -100 6 -7 11 -63 12 -129 1 -79 6 -128 16 -153 10 -23 15 -70 15 -138 0 -72 5 -112 15 -132 9 -17 15 -55 15 -95 0 -36 4 -81 10 -99 5 -19 12 -84 16 -145 7 -117 21 -157 54 -157 10 0 23 -7 30 -15 7 -8 20 -15 30 -15 10 0 20 -7 24 -15 3 -8 14 -15 24 -15 11 0 25 -7 32 -15 7 -8 18 -15 25 -15 7 0 18 -6 24 -13 6 -8 28 -19 49 -25 21 -7 49 -21 62 -32 13 -11 31 -20 42 -20 10 0 18 -7 18 -15 0 -8 8 -15 19 -15 10 0 24 -7 31 -15 7 -8 23 -15 35 -15 13 0 25 -7 29 -15 3 -8 12 -15 19 -15 8 0 20 -7 27 -15 7 -8 21 -15 32 -15 10 0 21 -7 24 -15 4 -8 12 -15 18 -15 7 0 33 -11 57 -25 24 -13 54 -29 66 -34 11 -5 24 -15 28 -20 3 -6 14 -11 24 -11 10 0 24 -7 31 -15 7 -8 21 -15 31 -15 11 0 19 -4 19 -10 0 -5 11 -12 24 -16 14 -3 27 -12 30 -20 3 -8 14 -14 25 -14 11 0 22 -4 26 -9 3 -6 29 -22 58 -36 28 -15 75 -38 102 -52 28 -14 58 -32 67 -40 17 -15 42 -14 81 2 10 4 17 3 17 -4 0 -6 -9 -11 -20 -11 -28 0 -25 -19 4 -30 13 -5 27 -14 31 -19 3 -6 15 -11 26 -11 11 0 22 -7 25 -15 4 -8 14 -15 24 -15 10 0 23 -7 30 -15 7 -8 20 -15 30 -15 10 0 20 -7 24 -15 3 -8 15 -15 26 -15 11 0 23 -7 26 -15 4 -8 12 -15 20 -15 16 0 92 -39 100 -51 3 -5 13 -9 24 -9 10 0 20 -7 24 -15 3 -8 14 -15 24 -15 11 0 25 -7 32 -15 7 -8 20 -15 30 -15 10 0 23 -7 30 -15 7 -8 19 -15 27 -15 7 0 16 -7 19 -15 4 -8 14 -15 24 -15 10 0 23 -7 30 -15 7 -8 21 -15 31 -15 10 0 21 -4 24 -10 3 -5 27 -19 53 -30 25 -11 54 -28 64 -37 16 -15 31 -14 71 2 10 4 17 3 17 -4 0 -6 -9 -11 -20 -11 -11 0 -20 -4 -20 -9 0 -10 79 -51 97 -51 6 0 13 -7 17 -15 3 -8 14 -15 24 -15 11 0 25 -7 32 -15 7 -8 20 -15 30 -15 10 0 23 -7 30 -15 7 -8 18 -15 25 -15 7 0 15 -7 19 -15 3 -8 14 -15 25 -15 11 0 22 -4 25 -9 3 -5 44 -28 91 -51 47 -23 85 -46 85 -51 0 -5 8 -9 19 -9 10 0 24 -7 31 -15 7 -8 20 -15 30 -15 10 0 23 -7 30 -15 7 -8 18 -15 25 -15 7 0 18 -7 25 -15 7 -8 20 -15 30 -15 10 0 20 -7 24 -15 3 -8 14 -15 24 -15 11 0 39 -13 63 -30 24 -16 52 -30 62 -30 9 0 17 -4 17 -9 0 -5 34 -26 75 -47 42 -21 81 -44 87 -51 6 -7 19 -13 29 -13 10 0 20 -4 24 -9 3 -6 30 -21 60 -35 29 -14 57 -31 60 -36 3 -6 15 -10 26 -10 10 0 19 -4 19 -9 0 -13 143 -81 172 -81 14 0 45 11 69 25 24 14 50 27 57 30 6 3 18 7 25 10 6 3 26 14 42 25 17 11 37 22 45 26 8 3 22 10 30 15 8 5 25 13 38 19 12 5 22 14 22 20 0 5 11 10 24 10 13 0 29 7 36 15 7 8 19 15 27 15 7 0 16 7 19 15 4 8 11 15 17 15 18 0 97 41 97 51 0 5 8 9 18 9 11 0 29 9 41 19 12 10 34 23 49 29 49 18 57 22 87 42 17 11 40 24 52 29 11 5 24 15 28 20 3 6 15 11 26 11 11 0 22 7 25 15 4 8 17 15 30 15 13 0 24 4 24 9 0 5 37 28 83 51 45 23 96 50 112 61 17 10 37 21 45 25 8 3 22 10 30 15 8 5 39 20 68 35 28 14 52 30 52 35 0 5 6 9 14 9 19 0 79 32 89 47 4 7 16 13 26 13 10 0 24 6 30 14 6 8 34 23 61 35 27 12 52 26 55 31 3 6 14 10 24 10 10 0 24 7 31 15 7 8 21 15 31 15 10 0 22 6 26 12 9 14 39 35 63 44 8 3 22 10 30 15 8 5 21 11 28 14 26 10 38 16 57 28 90 54 116 67 130 67 8 0 18 7 21 15 4 8 14 15 24 15 10 0 23 7 30 15 7 8 18 15 25 15 7 0 18 7 25 15 7 8 20 15 30 15 10 0 20 7 24 15 3 8 17 15 31 15 14 0 25 5 25 10 0 6 10 15 23 20 22 10 36 17 72 39 11 6 43 23 70 37 28 14 77 41 110 60 33 18 66 36 73 39 6 3 18 7 25 10 6 3 26 14 42 25 17 10 53 31 80 45 28 15 74 39 103 55 30 15 59 33 65 39 6 6 19 11 29 11 10 0 21 7 24 15 4 8 14 15 24 15 11 0 22 5 25 11 4 5 17 14 28 20 12 5 29 13 37 18 8 5 33 17 55 27 22 11 42 22 43 27 2 4 18 14 35 23 18 8 48 23 67 34 19 10 43 19 53 20 9 0 17 5 17 11 0 5 14 15 30 20 17 6 30 15 30 20 0 5 9 9 20 9 11 0 23 7 26 15 4 8 14 15 24 15 10 0 23 6 30 14 6 8 21 16 33 18 28 4 45 53 47 133 1 33 6 85 11 115 10 57 20 150 41 385 7 77 19 150 26 162 8 14 12 64 12 140 0 77 4 123 12 131 6 6 15 48 19 94 4 46 12 115 18 153 6 39 10 102 11 141 0 42 5 75 13 82 7 8 14 59 18 140 4 70 11 145 17 167 6 22 16 96 22 165 20 217 27 274 39 303 6 16 11 78 11 138 0 64 5 119 12 132 6 12 18 87 25 167 22 221 30 289 42 365 6 39 11 102 11 140 0 41 7 80 15 95 10 18 15 60 15 145 0 85 5 127 15 145 8 14 14 52 15 85 0 33 5 76 10 95 6 19 13 85 17 145 3 61 12 127 20 149 8 23 13 82 13 150 0 76 4 116 12 124 8 8 18 74 25 175 13 169 24 258 43 342 6 28 10 91 9 142 -1 73 2 95 15 108 11 12 17 37 18 88 1 40 2 90 3 112 1 22 7 58 13 80 20 67 16 93 -18 110 -16 8 -40 15 -54 15 -14 0 -27 4 -30 9 -4 5 -24 12 -45 16 -22 4 -45 13 -52 21 -6 8 -26 14 -43 14 -18 0 -37 5 -44 12 -16 16 -80 39 -125 45 -21 3 -41 11 -44 19 -3 8 -19 14 -37 14 -17 0 -40 7 -50 15 -11 8 -29 15 -40 15 -12 0 -30 7 -40 15 -11 8 -32 15 -47 15 -15 0 -29 7 -33 15 -3 10 -19 15 -44 15 -22 0 -45 6 -51 14 -6 8 -24 16 -39 19 -33 6 -88 25 -124 43 -14 8 -40 14 -56 14 -17 0 -32 6 -36 15 -3 10 -19 15 -45 15 -25 0 -41 5 -45 15 -3 9 -18 15 -34 15 -16 0 -35 7 -42 15 -7 8 -24 15 -39 15 -14 0 -35 7 -45 15 -11 8 -34 15 -52 15 -17 0 -37 7 -44 15 -7 8 -21 15 -31 15 -28 0 -110 30 -126 46 -8 8 -32 14 -53 14 -24 0 -40 5 -44 15 -3 8 -18 15 -34 15 -15 0 -37 7 -48 15 -10 8 -31 15 -45 15 -15 0 -32 7 -39 15 -7 8 -25 15 -40 15 -15 0 -33 7 -40 15 -7 8 -29 15 -50 15 -21 0 -43 7 -50 15 -7 8 -20 15 -30 15 -10 0 -31 7 -46 15 -16 8 -39 15 -50 15 -12 0 -27 7 -34 15 -7 8 -27 15 -45 15 -18 0 -38 7 -45 15 -7 8 -25 15 -39 15 -15 0 -36 7 -47 15 -10 8 -29 15 -40 15 -12 0 -27 7 -34 15 -7 8 -29 15 -50 15 -24 0 -40 5 -44 15 -3 9 -18 15 -39 15 -19 0 -40 7 -47 15 -7 8 -22 15 -34 15 -11 1 -32 7 -46 15 -14 8 -37 14 -51 15 -15 0 -29 7 -33 15 -3 8 -17 15 -30 15 -30 0 -110 25 -148 45 -14 8 -35 15 -46 15 -11 0 -25 7 -32 15 -7 8 -27 15 -45 15 -18 0 -38 7 -45 15 -7 8 -25 15 -39 15 -15 0 -36 7 -47 15 -10 8 -28 15 -39 15 -11 0 -29 7 -39 15 -11 8 -34 15 -52 15 -18 0 -34 5 -36 11 -2 5 -19 14 -38 19 -47 11 -99 29 -133 46 -16 8 -39 14 -52 14 -12 0 -28 7 -35 15 -7 8 -27 15 -45 15 -18 0 -38 6 -44 14 -6 8 -24 16 -39 19 -33 6 -88 25 -124 43 -14 8 -37 14 -51 14 -13 0 -30 7 -37 15 -7 8 -23 15 -36 15 -22 0 -70 17 -126 46 -36 19 -172 19 -187 0z m333 -101 c19 -15 19 -15 -1 -15 -11 0 -26 7 -33 15 -17 20 7 20 34 0z m-509 -15 c-28 -12 -37 -12 -30 0 3 6 16 10 28 9 21 0 21 -1 2 -9z m-165 -60 c0 -5 -12 -10 -26 -10 -14 0 -23 4 -19 10 3 6 15 10 26 10 10 0 19 -4 19 -10z m880 0 c12 -8 12 -10 -5 -10 -11 0 -27 5 -35 10 -12 8 -12 10 5 10 11 0 27 -5 35 -10z m-1215 -120 c-3 -5 -21 -10 -38 -9 -27 0 -29 2 -12 9 28 12 57 12 50 0z m1584 -10 c-15 -10 -41 -1 -34 10 3 5 14 6 26 3 15 -4 17 -8 8 -13z m170 -49 c11 -7 9 -10 -8 -16 -22 -7 -41 0 -41 16 0 11 30 12 49 0z m-2139 -61 c0 -5 -6 -10 -14 -10 -8 0 -18 5 -21 10 -3 6 3 10 14 10 12 0 21 -4 21 -10z m-254 -105 c-11 -8 -29 -15 -39 -15 -16 0 -17 3 -7 15 7 8 24 15 39 15 25 -1 25 -1 7 -15z m2855 -1 c11 -14 10 -15 -11 -12 -13 1 -25 9 -28 16 -5 17 23 15 39 -4z m368 -130 c10 -9 -6 -11 -36 -7 -18 3 -30 9 -27 14 5 8 52 2 63 -7z m203 -76 c-10 -10 -44 0 -37 12 3 5 14 6 26 3 12 -3 17 -9 11 -15z m-4340 -120 c-6 -6 -16 -7 -22 -3 -9 6 -9 9 1 16 17 10 34 0 21 -13z m-157 -48 c-3 -5 -15 -10 -26 -10 -11 0 -17 5 -14 10 3 6 15 10 26 10 11 0 17 -4 14 -10z m4995 0 c12 -8 9 -10 -12 -10 -15 0 -30 5 -33 10 -8 13 25 13 45 0z m-2496 -52 c9 -12 16 -32 16 -44 0 -12 7 -27 15 -34 8 -7 15 -20 15 -30 0 -10 7 -23 15 -30 8 -7 15 -23 15 -35 0 -12 7 -28 15 -35 8 -7 15 -21 15 -31 0 -9 7 -24 15 -33 8 -8 15 -23 15 -33 0 -10 7 -27 15 -37 8 -11 15 -28 15 -38 0 -10 7 -21 15 -24 8 -4 15 -18 15 -34 0 -15 7 -33 15 -40 8 -7 15 -20 15 -30 0 -10 7 -23 15 -30 8 -7 15 -21 15 -31 0 -9 7 -24 15 -33 8 -8 15 -21 15 -28 0 -8 7 -23 15 -34 8 -10 15 -29 15 -40 0 -12 7 -27 15 -34 8 -7 15 -20 15 -30 0 -10 7 -23 15 -30 8 -7 15 -23 15 -35 0 -12 7 -28 15 -35 8 -7 15 -25 15 -40 0 -16 7 -30 15 -34 8 -3 15 -14 15 -24 0 -10 7 -27 15 -38 8 -10 15 -26 15 -35 0 -9 7 -22 15 -29 8 -7 15 -23 15 -35 0 -12 7 -28 15 -35 8 -7 15 -19 15 -27 0 -8 6 -27 14 -41 15 -29 41 -88 50 -112 3 -8 10 -22 14 -30 24 -43 42 -83 42 -95 0 -7 7 -18 15 -25 8 -7 15 -23 15 -35 0 -12 7 -28 15 -35 8 -7 15 -23 15 -37 0 -13 7 -26 15 -29 8 -4 15 -17 15 -29 0 -13 5 -27 10 -30 17 -10 50 -82 50 -108 0 -14 7 -30 15 -37 8 -7 15 -20 15 -30 0 -10 7 -23 15 -30 8 -7 15 -20 15 -29 0 -10 7 -26 15 -37 8 -10 15 -26 15 -35 0 -9 7 -22 15 -29 8 -7 15 -23 15 -36 0 -12 7 -29 15 -38 8 -8 15 -21 15 -28 0 -8 7 -23 15 -34 8 -10 15 -26 15 -35 0 -9 7 -22 15 -29 8 -7 15 -23 15 -35 0 -12 7 -28 15 -35 8 -7 15 -23 15 -35 0 -12 7 -28 15 -35 8 -7 15 -21 15 -32 0 -10 7 -21 15 -24 9 -4 15 -19 15 -39 0 -20 6 -35 15 -39 8 -3 15 -16 15 -29 0 -14 7 -30 15 -37 8 -7 15 -20 15 -29 0 -9 7 -25 15 -35 8 -11 15 -28 15 -38 0 -10 7 -21 15 -24 9 -4 15 -19 15 -35 0 -16 6 -32 14 -35 7 -3 21 -31 32 -62 10 -31 24 -64 31 -73 7 -8 13 -25 13 -36 0 -12 7 -23 15 -27 9 -3 15 -18 15 -35 0 -16 4 -32 9 -35 13 -9 51 -89 51 -109 0 -10 7 -20 15 -23 8 -4 15 -16 15 -29 0 -12 7 -28 15 -35 8 -7 15 -21 15 -31 0 -20 37 -96 51 -105 5 -3 9 -19 9 -35 0 -17 6 -32 15 -35 8 -4 15 -16 15 -29 0 -12 7 -28 15 -35 8 -7 15 -20 15 -30 0 -10 7 -23 15 -30 8 -7 15 -23 15 -37 0 -13 7 -26 15 -29 8 -4 15 -18 15 -34 0 -15 7 -33 15 -40 8 -7 15 -20 15 -30 0 -10 7 -23 15 -30 8 -7 15 -23 15 -35 0 -12 7 -28 15 -35 8 -7 15 -20 15 -29 0 -9 7 -25 15 -35 8 -11 15 -30 15 -42 0 -12 7 -27 15 -34 8 -7 15 -20 15 -30 0 -10 7 -23 15 -30 8 -7 15 -23 15 -35 0 -12 7 -28 15 -35 8 -7 15 -20 15 -29 0 -10 7 -26 15 -37 8 -10 15 -26 15 -35 0 -9 7 -22 15 -29 8 -7 15 -20 15 -30 0 -10 7 -23 15 -30 8 -7 15 -26 15 -42 0 -16 6 -31 15 -34 8 -4 15 -14 15 -23 0 -10 7 -26 15 -37 8 -10 15 -29 15 -40 0 -12 7 -27 15 -34 8 -7 15 -20 15 -30 0 -10 7 -23 15 -30 8 -7 15 -23 15 -35 0 -12 7 -28 15 -35 8 -7 15 -20 15 -30 0 -10 7 -23 15 -30 8 -7 15 -23 15 -35 0 -12 7 -28 15 -35 8 -7 15 -23 15 -37 0 -13 7 -26 15 -29 8 -4 15 -17 15 -29 0 -13 6 -30 13 -37 19 -21 47 -86 47 -112 0 -13 7 -26 15 -30 8 -3 15 -13 15 -23 0 -10 7 -27 15 -37 8 -11 15 -28 15 -38 0 -10 7 -21 15 -24 8 -4 15 -18 15 -34 0 -15 7 -33 15 -40 8 -7 15 -23 15 -36 0 -12 4 -25 9 -28 13 -8 51 -89 51 -108 0 -9 7 -21 15 -28 8 -7 15 -23 15 -37 0 -13 7 -26 15 -29 8 -4 15 -16 15 -29 0 -12 7 -28 15 -35 8 -7 15 -20 15 -30 0 -10 7 -23 15 -30 8 -7 15 -25 15 -40 0 -16 7 -30 15 -34 8 -3 15 -16 15 -30 0 -14 7 -31 15 -40 8 -8 15 -21 15 -28 0 -8 7 -23 15 -34 8 -10 15 -34 15 -51 l0 -33 -498 0 -498 0 -22 30 c-12 16 -22 42 -22 59 0 16 -5 31 -11 33 -11 4 -35 60 -46 106 -3 13 -12 26 -19 29 -8 3 -14 19 -14 38 0 18 -7 38 -15 45 -8 7 -15 21 -15 30 0 10 -8 33 -17 52 -9 18 -22 45 -30 60 -7 14 -13 36 -13 47 0 12 -7 24 -15 27 -9 4 -15 19 -15 39 0 18 -7 38 -15 45 -8 7 -15 20 -15 30 0 10 -7 23 -15 30 -8 7 -15 24 -15 39 0 14 -7 35 -15 45 -8 11 -15 30 -15 43 0 13 -7 26 -15 29 -8 4 -15 14 -15 24 0 10 -13 45 -30 78 -16 34 -30 74 -30 90 0 17 -6 32 -15 36 -8 3 -15 16 -15 28 0 13 -7 32 -15 42 -8 11 -15 27 -15 37 0 9 -7 22 -15 29 -8 7 -15 25 -15 40 0 15 -6 33 -14 39 -10 8 -311 11 -1117 11 -1028 0 -1105 -1 -1116 -17 -7 -9 -13 -24 -13 -32 0 -9 -7 -25 -15 -35 -8 -11 -15 -30 -15 -42 0 -12 -7 -24 -15 -28 -8 -3 -15 -16 -15 -29 0 -14 -7 -30 -15 -37 -8 -7 -15 -27 -15 -45 0 -20 -6 -35 -15 -39 -8 -3 -15 -16 -15 -28 0 -13 -7 -32 -15 -42 -8 -11 -15 -27 -15 -37 0 -9 -7 -22 -15 -29 -8 -7 -15 -25 -15 -40 0 -15 -7 -33 -15 -40 -8 -7 -15 -25 -15 -40 0 -15 -7 -33 -15 -40 -8 -7 -15 -20 -15 -29 0 -10 -7 -26 -15 -37 -8 -10 -15 -29 -15 -40 0 -12 -7 -27 -15 -34 -8 -7 -15 -25 -15 -40 0 -15 -7 -33 -15 -40 -8 -7 -15 -22 -15 -34 0 -11 -7 -30 -15 -40 -8 -11 -15 -30 -15 -42 0 -12 -7 -24 -15 -28 -9 -3 -15 -18 -15 -34 0 -16 -7 -35 -15 -42 -8 -7 -15 -25 -15 -41 0 -16 -4 -29 -10 -29 -5 0 -14 -18 -20 -40 -6 -21 -15 -42 -20 -45 -6 -3 -10 -19 -10 -35 0 -15 -7 -30 -15 -34 -8 -3 -15 -15 -15 -26 0 -20 -4 -20 -504 -20 -421 0 -505 2 -515 14 -8 10 -9 16 -1 21 5 3 10 14 10 24 0 10 7 24 15 31 8 7 15 21 15 31 0 24 32 92 48 102 6 4 12 21 12 37 0 17 3 30 8 30 9 0 52 93 52 113 0 8 7 17 15 21 8 3 15 16 15 29 0 14 7 30 15 37 8 7 15 23 15 35 0 12 7 28 15 35 8 7 15 20 15 30 0 10 7 23 15 30 8 7 15 23 15 35 0 12 7 28 15 35 8 7 15 23 15 35 0 12 7 28 15 35 8 7 15 20 15 29 0 10 7 26 15 37 8 10 15 26 15 35 0 9 7 19 15 23 9 3 15 18 15 34 0 16 7 35 15 42 8 7 15 20 15 30 0 10 7 23 15 30 8 7 15 23 15 35 0 12 7 28 15 35 8 7 15 20 15 30 0 10 7 23 15 30 8 7 15 21 15 32 0 26 30 91 47 101 7 4 13 21 13 38 0 17 6 32 15 35 8 4 15 16 15 29 0 12 7 28 15 35 8 7 15 23 15 35 0 12 7 28 15 35 8 7 15 20 15 30 0 10 7 23 15 30 8 7 15 26 15 42 0 16 6 31 15 34 8 4 15 14 15 23 0 9 7 25 15 35 8 11 15 27 15 37 0 9 7 22 15 29 8 7 15 23 15 35 0 12 7 28 15 35 8 7 15 23 15 35 0 12 7 28 15 35 8 7 15 18 15 25 0 8 7 26 14 42 8 15 17 35 20 43 3 8 10 22 15 30 5 8 17 33 26 55 10 22 24 53 31 68 8 16 14 35 14 42 0 7 7 15 15 19 8 3 15 18 15 33 0 15 7 37 15 47 8 11 15 26 15 34 0 7 7 20 15 28 8 9 15 24 15 33 0 10 7 24 15 31 8 7 15 20 15 30 0 10 7 23 15 30 8 7 15 25 15 41 0 15 4 30 9 33 14 9 51 85 51 105 0 10 7 21 15 25 8 3 15 16 15 29 0 14 7 30 15 37 8 7 15 23 15 35 0 12 7 28 15 35 8 7 15 20 15 30 0 10 7 23 15 30 8 7 15 23 15 35 0 12 7 28 15 35 8 7 15 23 15 35 0 12 7 28 15 35 8 7 15 20 15 29 0 9 7 25 15 35 8 11 15 27 15 37 0 9 7 22 15 29 8 7 15 23 15 35 0 12 7 28 15 35 8 7 15 19 15 28 0 8 6 23 13 31 7 9 21 41 32 71 10 30 25 61 32 68 7 7 13 24 13 38 0 14 7 27 15 30 8 4 15 14 15 23 0 10 7 26 15 37 8 10 15 29 15 40 0 12 7 24 15 28 8 3 15 14 15 25 0 11 7 32 15 48 7 15 24 49 35 75 12 27 26 50 31 54 5 3 9 16 9 28 0 13 7 29 15 36 8 7 15 23 15 35 0 12 7 28 15 35 8 7 15 20 15 30 0 10 7 23 15 30 8 7 15 23 15 35 0 12 7 28 15 35 8 7 15 23 15 35 0 12 7 28 15 35 8 7 15 20 15 30 0 10 7 23 15 30 8 7 15 23 15 35 0 12 7 28 15 35 8 7 15 23 15 37 0 13 7 26 15 29 8 4 15 14 15 24 0 22 37 107 50 115 6 3 10 17 10 31 0 14 7 27 15 30 8 4 15 16 15 28 0 12 7 31 15 42 8 10 15 26 15 35 0 9 7 22 15 29 8 7 15 20 15 30 0 10 7 23 15 30 8 7 15 25 15 40 0 16 7 30 15 34 8 3 15 14 15 24 0 10 7 27 15 38 8 10 15 26 15 35 0 9 7 22 15 29 8 7 15 23 15 35 0 12 7 28 15 35 8 7 15 23 15 35 0 12 7 28 15 35 8 7 15 20 15 30 0 10 7 23 15 30 8 7 15 23 15 35 0 12 7 28 15 35 8 7 15 23 15 35 0 12 7 28 15 35 8 7 15 20 15 29 0 10 7 26 15 37 8 10 15 27 15 37 0 10 7 20 15 23 8 4 15 13 15 22 0 23 31 104 47 123 7 8 13 25 13 36 0 12 7 23 15 27 8 3 15 14 15 24 0 11 7 25 15 32 8 7 15 25 15 41 0 15 4 30 9 33 15 10 48 79 55 119 8 43 35 50 60 15z m-133 -75 c-9 -16 -10 -15 -11 8 0 14 3 29 8 33 12 12 14 -22 3 -41z m229 -9 c0 -8 -4 -14 -10 -14 -5 0 -10 9 -10 21 0 11 5 17 10 14 6 -3 10 -13 10 -21z m-3105 -44 c-3 -5 -18 -10 -33 -10 -21 0 -24 2 -12 10 20 13 53 13 45 0z m-135 -45 c-7 -8 -22 -15 -34 -15 -20 0 -19 1 4 14 34 19 45 19 30 1z m3284 -1 c4 -10 1 -14 -6 -12 -15 5 -23 28 -10 28 5 0 13 -7 16 -16z m-324 -54 c0 -11 -4 -20 -10 -20 -5 0 -10 9 -10 20 0 11 5 20 10 20 6 0 10 -9 10 -20z m-3160 -20 c-19 -13 -30 -13 -30 0 0 6 10 10 23 10 18 0 19 -2 7 -10z m3565 -119 c-9 -16 -25 -3 -18 15 4 10 9 12 15 6 6 -6 7 -15 3 -21z m3475 -1 c12 -8 12 -10 -3 -16 -20 -7 -47 1 -47 16 0 12 30 13 50 0z m-3991 -89 c-8 -17 -18 -31 -22 -31 -5 0 -7 3 -5 8 21 44 32 61 36 58 2 -3 -2 -19 -9 -35z m-3871 -79 c3 -18 -2 -22 -22 -22 -29 0 -31 3 -15 31 13 25 33 20 37 -9z m8321 5 c13 -16 5 -27 -21 -27 -11 0 -18 7 -18 20 0 23 22 27 39 7z m-19 -142 c0 -14 -4 -25 -10 -25 -5 0 -10 11 -10 25 0 14 5 25 10 25 6 0 10 -11 10 -25z m-8294 -164 l-10 -23 -8 28 c-5 16 -5 43 -2 59 l7 30 12 -35 c9 -25 9 -42 1 -59z m8294 39 c0 -10 -4 -22 -10 -25 -6 -4 -10 7 -10 25 0 18 4 29 10 25 6 -3 10 -15 10 -25z m-4622 -71 c-6 -16 -12 -28 -15 -26 -7 7 8 57 18 57 4 0 3 -14 -3 -31z m-3618 -331 c0 -25 -3 -29 -10 -18 -13 20 -13 50 0 50 6 0 10 -15 10 -32z m6 -105 c-6 -14 -9 -15 -16 -4 -11 19 -1 46 13 32 5 -5 7 -18 3 -28z m3434 1 c0 -14 -4 -23 -10 -19 -5 3 -10 15 -10 26 0 10 5 19 10 19 6 0 10 -12 10 -26z m1300 4 c0 -16 -3 -19 -11 -11 -6 6 -8 16 -5 22 11 17 16 13 16 -11z m3386 -316 c-15 -15 -16 -15 -16 4 0 28 24 52 28 28 2 -9 -3 -24 -12 -32z m-3158 -172 c3 -21 2 -22 -12 -11 -19 16 -21 44 -3 39 6 -3 14 -15 15 -28z m-4908 -24 c0 -8 -4 -18 -10 -21 -5 -3 -10 3 -10 14 0 12 5 21 10 21 6 0 10 -6 10 -14z m8001 -277 c-9 -22 -10 -22 -10 -3 -1 11 2 24 6 27 12 12 14 0 4 -24z m-7894 -538 c-1 -66 -3 -77 -14 -63 -13 17 -18 133 -7 145 16 15 22 -8 21 -82z m2669 12 c-11 -11 -17 4 -9 23 7 18 8 18 11 1 2 -10 1 -21 -2 -24z m5165 -50 c-10 -17 -10 -16 -11 3 0 23 13 41 18 25 2 -6 -1 -18 -7 -28z m-2555 -188 c10 -26 -1 -35 -13 -10 -6 14 -7 25 -2 25 5 0 12 -7 15 -15z m2481 -512 c-2 -21 -4 -6 -4 32 0 39 2 55 4 38 2 -18 2 -50 0 -70z m-7688 -10 c0 -25 -1 -25 -8 -8 -5 11 -7 23 -4 28 8 14 13 7 12 -20z m5526 -190 c-7 -17 -8 -17 -15 2 -9 24 -2 41 12 27 6 -6 7 -19 3 -29z m-5475 -8 c0 -1 -7 -8 -15 -15 -13 -10 -15 -9 -15 8 0 15 5 20 15 16 8 -4 15 -7 15 -9z m2080 -62 c0 -5 -5 -15 -10 -23 -8 -12 -10 -11 -10 8 0 12 5 22 10 22 6 0 10 -3 10 -7z m5503 -194 c-5 -19 -7 -19 -15 -5 -10 18 -2 39 12 31 4 -3 6 -15 3 -26z m-1873 -245 c0 -8 -4 -14 -10 -14 -5 0 -10 9 -10 21 0 11 5 17 10 14 6 -3 10 -13 10 -21z m-5643 -346 c-2 -18 -4 -6 -4 27 0 33 2 48 4 33 2 -15 2 -42 0 -60z m7452 15 c-1 -45 -1 -46 -10 -18 -8 27 -4 65 7 65 2 0 4 -21 3 -47z m-5813 -100 c-11 -11 -19 6 -11 24 8 17 8 17 12 0 3 -10 2 -21 -1 -24z m3183 -134 c3 -24 3 -24 -18 -5 -11 10 -18 23 -15 28 10 16 29 2 33 -23z m-2239 -119 c0 -11 -4 -20 -10 -20 -5 0 -10 9 -10 20 0 11 5 20 10 20 6 0 10 -9 10 -20z m3360 -6 c0 -8 -4 -14 -10 -14 -5 0 -10 9 -10 21 0 11 5 17 10 14 6 -3 10 -13 10 -21z m-1049 -48 c5 -6 9 -19 9 -29 0 -16 -3 -17 -15 -7 -9 7 -15 27 -14 49 1 21 3 28 6 16 3 -11 9 -24 14 -29z m2509 -52 c0 -21 -4 -33 -10 -29 -5 3 -10 22 -10 41 0 21 4 33 10 29 6 -3 10 -22 10 -41z m-4875 -63 c-9 -16 -25 -3 -18 15 4 10 9 12 15 6 6 -6 7 -15 3 -21z m2475 -131 c0 -11 -4 -20 -10 -20 -5 0 -10 9 -10 20 0 11 5 20 10 20 6 0 10 -9 10 -20z m1110 -63 c0 -20 0 -20 -15 -1 -19 25 -19 35 0 28 8 -4 15 -16 15 -27z m-4779 -24 c-9 -16 -10 -15 -11 8 0 14 3 29 8 33 12 12 14 -22 3 -41z m-1209 -209 l-8 -39 -8 38 c-7 40 0 65 15 50 6 -6 6 -26 1 -49z m1091 -65 c-4 -13 -9 -17 -16 -10 -12 12 -1 45 12 37 5 -3 7 -15 4 -27z m6087 -226 c-1 -10 -7 -29 -14 -42 -13 -23 -13 -23 -14 10 0 18 1 37 4 41 9 14 24 8 24 -9z m-937 -46 c-3 -5 -9 -3 -14 4 -4 7 -5 17 -2 22 3 5 9 3 14 -4 4 -7 5 -17 2 -22z m-6183 -39 c0 -5 -4 -8 -10 -8 -5 0 -10 10 -10 23 0 18 2 19 10 7 5 -8 10 -18 10 -22z m6240 -78 c0 -11 -4 -20 -10 -20 -5 0 -10 9 -10 20 0 11 5 20 10 20 6 0 10 -9 10 -20z m-6240 -51 c0 -16 -4 -29 -10 -29 -5 0 -10 16 -10 36 0 21 4 33 10 29 6 -3 10 -19 10 -36z m5810 -84 c0 -3 -9 -5 -20 -5 -11 0 -20 7 -20 15 0 13 4 14 20 5 11 -6 20 -13 20 -15z m194 11 c9 3 16 2 16 -4 0 -5 -29 -10 -65 -10 -38 0 -63 4 -59 9 3 5 10 7 15 4 5 -4 17 -2 26 4 11 6 24 6 35 0 9 -5 24 -6 32 -3z m-6004 -35 c0 -17 -4 -33 -10 -36 -6 -4 -10 8 -10 29 0 20 5 36 10 36 6 0 10 -13 10 -29z m855 -481 c3 -5 -3 -10 -14 -10 -12 0 -21 5 -21 10 0 6 6 10 14 10 8 0 18 -4 21 -10z m145 -82 c0 -13 -23 -5 -28 10 -2 7 2 10 12 6 9 -3 16 -11 16 -16z m3840 -687 c0 -12 -28 -22 -34 -12 -3 5 -3 11 1 15 9 9 33 7 33 -3z"/> <path d="M4477 6023 c-4 -3 -7 -19 -7 -33 0 -15 -7 -33 -15 -40 -8 -7 -15 -18 -15 -25 0 -7 -7 -18 -15 -25 -8 -7 -15 -28 -15 -47 0 -21 -6 -36 -15 -39 -8 -4 -15 -17 -15 -29 0 -13 -4 -26 -9 -30 -6 -3 -20 -37 -32 -76 -12 -39 -28 -73 -36 -76 -7 -3 -13 -20 -13 -38 0 -19 -6 -35 -14 -38 -7 -3 -16 -16 -19 -29 -9 -40 -33 -98 -45 -110 -7 -7 -12 -22 -12 -34 0 -12 -7 -27 -15 -34 -8 -7 -15 -25 -15 -40 0 -15 -7 -33 -15 -40 -8 -7 -15 -20 -15 -30 0 -10 -7 -23 -15 -30 -8 -7 -15 -25 -15 -40 0 -16 -7 -30 -15 -34 -9 -3 -15 -18 -15 -34 0 -16 -7 -35 -15 -42 -8 -7 -15 -20 -15 -29 0 -10 -7 -26 -15 -37 -8 -10 -15 -29 -15 -40 0 -12 -7 -24 -15 -28 -9 -3 -15 -18 -15 -34 0 -16 -7 -35 -15 -42 -8 -7 -15 -23 -15 -35 0 -12 -7 -28 -15 -35 -8 -7 -15 -23 -15 -35 0 -12 -7 -28 -15 -35 -8 -7 -15 -23 -15 -35 0 -12 -7 -28 -15 -35 -8 -7 -15 -23 -15 -36 0 -26 -28 -91 -47 -112 -7 -7 -13 -24 -13 -37 0 -12 -7 -25 -15 -29 -9 -3 -15 -19 -15 -41 0 -22 -6 -38 -15 -41 -8 -4 -15 -16 -15 -28 l0 -21 743 2 c712 1 742 2 739 20 -2 10 -10 22 -18 26 -8 4 -14 21 -14 36 0 16 -7 34 -15 41 -8 7 -15 23 -15 35 0 12 -7 28 -15 35 -8 7 -15 20 -15 29 0 10 -7 26 -15 37 -8 10 -15 27 -15 36 0 9 -6 29 -14 45 -7 15 -21 46 -31 68 -9 22 -24 52 -31 67 -8 14 -14 33 -14 41 0 8 -7 20 -15 27 -8 7 -15 25 -15 40 0 15 -7 33 -15 40 -8 7 -15 19 -15 27 0 8 -7 28 -15 44 -8 16 -22 42 -30 58 -8 16 -15 38 -15 49 0 11 -7 25 -15 32 -8 7 -15 19 -15 28 0 19 -38 100 -51 108 -5 3 -9 18 -9 34 0 16 -6 33 -13 37 -7 4 -23 41 -36 81 -13 39 -27 72 -32 72 -5 0 -9 11 -9 24 0 13 -7 29 -15 36 -8 7 -15 25 -15 40 0 15 -7 33 -15 40 -8 7 -15 19 -15 27 0 8 -6 27 -14 41 -25 49 -46 103 -46 118 0 8 -7 17 -15 20 -9 4 -15 19 -15 39 0 18 -7 38 -15 45 -8 7 -15 21 -15 32 0 10 -7 21 -15 24 -8 4 -15 18 -15 34 0 28 -21 55 -33 43z m23 -124 c0 -10 -7 -19 -15 -19 -15 0 -21 31 -9 43 11 10 24 -3 24 -24z m-79 -162 c-8 -8 -11 -5 -11 9 0 27 14 41 18 19 2 -9 -1 -22 -7 -28z m-161 -380 c0 -7 -7 -22 -15 -33 -12 -16 -14 -17 -15 -2 0 23 11 48 21 48 5 0 9 -6 9 -13z m-259 -610 c-8 -8 -11 -5 -11 9 0 27 14 41 18 19 2 -9 -1 -22 -7 -28z"/> </g> </svg> 